<svg width="23" height="25" viewBox="0 0 23 25" fill="none" xmlns="http://www.w3.org/2000/svg">
<path d="M17.0277 12.1988L17.0456 12.1942C17.5654 12.0594 19.3561 11.5359 20.5604 10.6348C21.1574 10.1881 21.4144 9.79293 21.4798 9.49076C21.529 9.26366 21.5388 8.77454 20.8318 7.91881L17.0277 12.1988ZM17.0277 12.1988L17.01 12.2039M17.0277 12.1988L17.01 12.2039M17.01 12.2039C16.2867 12.4105 15.865 13.0849 15.907 13.7629C15.9463 14.3959 16.4013 15.0295 17.1535 15.1672L17.2269 15.1807L17.3013 15.1867C17.4709 15.2006 17.8394 15.241 18.2469 15.3419C18.6737 15.4476 19.03 15.5924 19.2542 15.7552C19.4379 15.8886 19.4408 15.9565 19.4424 15.9965C19.4425 15.9979 19.4426 15.9992 19.4426 16.0006C19.4482 16.1179 19.403 16.5562 18.7563 17.4189L18.7562 17.419C18.6025 17.6239 18.3579 17.7794 17.9016 17.8436C17.4193 17.9113 16.8057 17.8564 16.1254 17.701C14.8054 17.3993 13.597 16.8069 13.3508 16.6817C12.8511 16.4139 12.3202 16.4806 11.953 16.6643C11.5746 16.8535 11.1347 17.2955 11.1126 17.9708C11.087 18.5498 11.1144 20.0396 11.6432 23.5H10.4843C10.9625 20.3679 11.0304 18.8533 11.0209 18.17C11.0142 17.5277 10.6253 17.0791 10.2542 16.8671C9.87712 16.6516 9.41274 16.601 8.98135 16.7555L8.94656 16.7679L8.91243 16.7821C8.7347 16.8558 7.4842 17.3517 6.04524 17.4244C4.61654 17.4965 3.30164 17.1532 2.45754 15.9143L2.45729 15.9139C1.67577 14.7676 1.49704 13.9969 1.50004 13.5314C1.50281 13.1004 1.66115 12.7796 1.92215 12.4975C2.53732 11.8324 3.58583 11.5354 3.76815 11.4913L3.81393 11.4802M17.01 12.2039L3.81393 11.4802M15.977 9.51447L15.9696 9.52501C15.4727 10.2367 14.632 10.2845 14.0948 10.044C13.8218 9.92186 13.5246 9.68943 13.3442 9.31429C13.1462 8.90271 13.1494 8.43919 13.322 8.04524L13.3248 8.03898C13.4982 7.64796 13.8129 6.87268 14.0311 5.97087C14.2547 5.0464 14.3428 4.12502 14.1846 3.38368C14.0428 2.71945 13.7169 2.21276 12.9912 1.88457C12.1674 1.51196 10.6676 1.29978 8.05453 1.77095L15.977 9.51447ZM15.977 9.51447L15.9842 9.50381M15.977 9.51447L15.9842 9.50381M15.9842 9.50381C16.3657 8.93688 17.2288 7.80789 18.2276 7.2365M15.9842 9.50381L18.2276 7.2365M3.81393 11.4802L3.85892 11.4662M3.81393 11.4802L3.85892 11.4662M3.85892 11.4662C4.21364 11.3563 4.54779 11.1091 4.75046 10.7339C4.95587 10.3537 5.02059 9.8275 4.77358 9.33422M3.85892 11.4662L4.77358 9.33422M18.2276 7.2365C18.6983 6.96721 19.0887 6.8857 19.4189 6.93442M18.2276 7.2365L19.4189 6.93442M19.4189 6.93442C19.7298 6.98027 20.217 7.17483 20.8317 7.91877L19.4189 6.93442ZM4.77358 9.33422C4.65238 9.08265 3.85823 7.34226 3.92978 5.58588C3.96445 4.73514 4.1987 3.97026 4.73341 3.35084C5.26657 2.73322 6.23793 2.09862 8.05444 1.77096L4.77358 9.33422ZM8.0211 18.2087C8.02113 18.2105 8.02115 18.2123 8.02118 18.2141C8.02112 18.2109 8.02108 18.2078 8.02104 18.2046L8.0211 18.2087ZM2.08757 10.6707C2.08345 10.6624 2.07942 10.6541 2.07548 10.6458C2.07814 10.6513 2.08055 10.6563 2.08271 10.6607L2.08757 10.6707ZM11.9611 19.3405C11.9679 19.344 11.9755 19.3479 11.9839 19.3522C11.971 19.3458 11.9582 19.3393 11.9454 19.3325L11.9611 19.3405ZM14.1093 18.1118C14.1095 18.106 14.1098 18.1005 14.11 18.0954L14.1107 18.0814C14.1103 18.0915 14.1099 18.1017 14.1093 18.1118ZM11.8454 24.7684C11.8451 24.7669 11.8449 24.7655 11.8447 24.764C11.8449 24.7655 11.8451 24.7669 11.8454 24.7684ZM10.2824 24.7681C10.2826 24.7667 10.2829 24.7653 10.2831 24.7639L10.2824 24.7681Z" fill="#345931" stroke="#345931" stroke-width="3"/>
</svg>
